<?xml version="1.0" encoding="UTF-8" standalone="no"?>
<!-- Created with Inkscape (http://www.inkscape.org/) -->

<svg
   xmlns:dc="http://purl.org/dc/elements/1.1/"
   xmlns:cc="http://creativecommons.org/ns#"
   xmlns:rdf="http://www.w3.org/1999/02/22-rdf-syntax-ns#"
   xmlns:svg="http://www.w3.org/2000/svg"
   xmlns="http://www.w3.org/2000/svg"
   xmlns:sodipodi="http://sodipodi.sourceforge.net/DTD/sodipodi-0.dtd"
   xmlns:inkscape="http://www.inkscape.org/namespaces/inkscape"
   width="32px"
   height="32px"
   id="svg2985"
   version="1.1"
   inkscape:version="0.48.4 r9939"
   sodipodi:docname="Новый документ 2">
  <defs
     id="defs2987" />
  <sodipodi:namedview
     id="base"
     pagecolor="#ffffff"
     bordercolor="#666666"
     borderopacity="1.0"
     inkscape:pageopacity="0.0"
     inkscape:pageshadow="2"
     inkscape:zoom="11.197802"
     inkscape:cx="-1.0122672"
     inkscape:cy="16"
     inkscape:current-layer="layer1"
     showgrid="true"
     inkscape:grid-bbox="true"
     inkscape:document-units="px"
     inkscape:window-width="1920"
     inkscape:window-height="1020"
     inkscape:window-x="0"
     inkscape:window-y="0"
     inkscape:window-maximized="1" />
  <metadata
     id="metadata2990">
    <rdf:RDF>
      <cc:Work
         rdf:about="">
        <dc:format>image/svg+xml</dc:format>
        <dc:type
           rdf:resource="http://purl.org/dc/dcmitype/StillImage" />
        <dc:title></dc:title>
      </cc:Work>
    </rdf:RDF>
  </metadata>
  <g
     id="layer1"
     inkscape:label="Layer 1"
     inkscape:groupmode="layer">
    <path
       sodipodi:type="star"
       style="opacity:0;fill:#ffff52;fill-opacity:1"
       id="path3777"
       sodipodi:sides="8"
       sodipodi:cx="18.128558"
       sodipodi:cy="18.068695"
       sodipodi:r1="7.2753372"
       sodipodi:r2="3.6376686"
       sodipodi:arg1="-2.2953999"
       sodipodi:arg2="-1.9027009"
       inkscape:flatsided="false"
       inkscape:rounded="0"
       inkscape:randomized="0"
       d="m 13.306182,12.621197 3.637062,2.008361 1.627342,-3.82276 1.151665,3.991917 3.853804,-1.552395 -2.008361,3.637062 3.82276,1.627342 -3.991916,1.151665 1.552394,3.853804 -3.637061,-2.008361 -1.627343,3.82276 -1.151665,-3.991917 -3.853804,1.552395 2.008361,-3.637062 -3.822759,-1.627342 3.991916,-1.151665 z" />
    <path
       sodipodi:type="spiral"
       style="fill:#ffff00;stroke:#000000;stroke-width:1px;stroke-linecap:butt;stroke-linejoin:miter;stroke-opacity:1"
       id="path3787"
       sodipodi:cx="11.877331"
       sodipodi:cy="10.745829"
       sodipodi:expansion="1"
       sodipodi:revolution="3"
       sodipodi:radius="7.4700437"
       sodipodi:argument="-17.763794"
       sodipodi:t0="0"
       d="m 11.877331,10.745829 c 0.174623,0.331336 -0.360483,0.398858 -0.550704,0.290235 -0.515487,-0.294362 -0.384861,-1.030961 -0.02977,-1.3916422 0.635181,-0.6451745 1.694598,-0.4156659 2.232581,0.2307009 0.789512,0.9485693 0.450354,2.3683113 -0.491169,3.0735193 C 11.78337,13.888574 9.992529,13.435518 9.1238138,12.197005 8.0306243,10.638463 8.5994313,8.4720245 10.135919,7.4416082 11.996811,6.193636 14.541162,6.8791426 15.732255,8.7141814 17.135917,10.876711 16.333167,13.800326 14.199213,15.151456 11.73548,16.711389 8.4317406,15.791056 6.9210001,13.357946 5.2044008,10.593292 6.242542,6.9088458 8.9749776,5.2387946 12.040357,3.3652495 16.105925,4.5213562 17.935068,7.5532401 c 2.030696,3.3659659 0.75651,7.8129569 -2.574913,9.8010289"
       transform="matrix(0.727461,0,0,1.9522406,6.3082773,-7.4230643)" />
    <path
       style="fill:#ffff00;stroke:#000000;stroke-width:1px;stroke-linecap:butt;stroke-linejoin:miter;stroke-opacity:1"
       d="m 11.877331,23.426889 7.322866,-0.0893 -0.0893,1.071638 -7.054956,0 0.0893,1.160943 5.80471,-0.0893 -0.0893,0.982336 -4.197252,-0.178606 0.178606,1.250245 2.857704,0 -0.0893,0.893032 -1.696762,0"
       id="path3789"
       inkscape:connector-curvature="0" />
  </g>
</svg>
